<svg width="180" height="180" viewBox="0 0 180 180" fill="none" xmlns="http://www.w3.org/2000/svg">
<rect width="180" height="180" rx="28" fill="#DC562C"/>
<path d="M46.4459 50.3256L95.921 37.8521V143.675L46.4459 134.421V50.3256Z" fill="white"/>
<path d="M44.7544 82.5156L46.8687 139.25L16 131.605L44.7544 82.5156Z" fill="white"/>
<path d="M46.4459 134.421L70.126 139.249L95.921 146.492V151.723L46.8688 139.249L46.4459 134.421Z" fill="white"/>
<path d="M95.9191 146.492L130.595 129.592V129.995L95.9191 151.723V146.492Z" fill="white"/>
<path d="M81.9653 29L164 36.2427L147.085 96.5981V58.7754L95.0737 35.0356L71.3939 42.2782L81.9653 29Z" fill="white"/>
<path d="M108.606 55.5566L124.674 60.7873L112.411 64.0063L124.674 62.3969V82.113L108.606 81.3082V55.5566Z" fill="white"/>
<path d="M130.171 62.7988L140.32 66.4201L132.709 68.0297L140.32 67.6273V83.0544L130.171 82.5149V62.7988Z" fill="white"/>
<path d="M108.606 101.578L124.674 99.1416V118.326L114.103 117.924L124.674 120.338L108.606 127.374V101.578Z" fill="white"/>
<path d="M130.171 98.2077L140.32 97.0005V112.291L133.977 112.693L139.898 113.9L130.595 117.924L130.171 98.2077Z" fill="white"/>
</svg>
