<?xml version="1.0" encoding="UTF-8"?>
<!DOCTYPE svg PUBLIC "-//W3C//DTD SVG 1.1//EN" "http://www.w3.org/Graphics/SVG/1.1/DTD/svg11.dtd">
<svg xmlns="http://www.w3.org/2000/svg" version="1.1" width="612px" height="611px" style="shape-rendering:geometricPrecision; text-rendering:geometricPrecision; image-rendering:optimizeQuality; fill-rule:evenodd; clip-rule:evenodd" xmlns:xlink="http://www.w3.org/1999/xlink">
<g><path style="opacity:1" fill="#060606" d="M -0.5,-0.5 C 203.5,-0.5 407.5,-0.5 611.5,-0.5C 611.5,203.167 611.5,406.833 611.5,610.5C 407.5,610.5 203.5,610.5 -0.5,610.5C -0.5,406.833 -0.5,203.167 -0.5,-0.5 Z"/></g>
<g><path style="opacity:1" fill="#fafafa" d="M 13.5,14.5 C 208.167,14.5 402.833,14.5 597.5,14.5C 597.5,209.167 597.5,403.833 597.5,598.5C 402.833,598.5 208.167,598.5 13.5,598.5C 13.5,403.833 13.5,209.167 13.5,14.5 Z"/></g>
<g><path style="opacity:1" fill="#000000" d="M 577.5,35.5 C 577.5,216.5 577.5,397.5 577.5,578.5C 396.5,578.5 215.5,578.5 34.5,578.5C 34.5,397.5 34.5,216.5 34.5,35.5C 215.5,35.5 396.5,35.5 577.5,35.5 Z"/></g>
<g><path style="opacity:1" fill="#1c1c1c" d="M 577.5,35.5 C 396.5,35.5 215.5,35.5 34.5,35.5C 34.5,216.5 34.5,397.5 34.5,578.5C 215.5,578.5 396.5,578.5 577.5,578.5C 396.334,579.5 215.001,579.833 33.5,579.5C 33.5,397.833 33.5,216.167 33.5,34.5C 215.001,34.167 396.334,34.5003 577.5,35.5 Z"/></g>
<g><path style="opacity:1" fill="#fefefe" d="M 354.5,263.5 C 395.997,264.499 437.663,264.832 479.5,264.5C 479.5,217.5 479.5,170.5 479.5,123.5C 486.5,123.5 493.5,123.5 500.5,123.5C 500.5,167.5 500.5,211.5 500.5,255.5C 500.991,270.382 493.991,279.215 479.5,282C 437.5,282.667 395.5,282.667 353.5,282C 340.581,280.079 333.414,272.579 332,259.5C 331.5,213.835 331.333,168.168 331.5,122.5C 339.167,122.5 346.833,122.5 354.5,122.5C 354.5,169.5 354.5,216.5 354.5,263.5 Z"/></g>
<g><path style="opacity:1" fill="#fbfbfb" d="M 255.5,176.5 C 254.167,176.5 252.833,176.5 251.5,176.5C 251.5,164.5 251.5,152.5 251.5,140.5C 212.167,140.5 172.833,140.5 133.5,140.5C 132.501,181.663 132.168,222.997 132.5,264.5C 172.004,264.832 211.337,264.499 250.5,263.5C 250.5,250.167 250.5,236.833 250.5,223.5C 258.426,225.218 266.426,226.552 274.5,227.5C 275.092,240.283 274.258,252.95 272,265.5C 268.707,275.768 261.541,281.268 250.5,282C 210.833,282.667 171.167,282.667 131.5,282C 121.649,280.484 115.149,274.984 112,265.5C 111.251,260.511 110.585,255.511 110,250.5C 109.333,217.5 109.333,184.5 110,151.5C 109.983,142.711 112.816,135.044 118.5,128.5C 121.706,125.898 125.372,124.398 129.5,124C 150.132,122.869 170.798,122.369 191.5,122.5C 210.167,122.667 228.833,122.833 247.5,123C 263.554,122.722 272.387,130.555 274,146.5C 274.5,155.494 274.666,164.494 274.5,173.5C 268.141,174.34 261.808,175.34 255.5,176.5 Z"/></g>
<g><path style="opacity:1" fill="#d9d9d9" d="M 500.5,255.5 C 500.5,211.5 500.5,167.5 500.5,123.5C 493.5,123.5 486.5,123.5 479.5,123.5C 479.5,170.5 479.5,217.5 479.5,264.5C 437.663,264.832 395.997,264.499 354.5,263.5C 395.833,263.5 437.167,263.5 478.5,263.5C 478.5,216.5 478.5,169.5 478.5,122.5C 486.167,122.5 493.833,122.5 501.5,122.5C 501.832,167.003 501.499,211.336 500.5,255.5 Z"/></g>
<g><path style="opacity:1" fill="#b4b4b4" d="M 133.5,140.5 C 133.5,140.833 133.5,141.167 133.5,141.5C 133.5,182.167 133.5,222.833 133.5,263.5C 172.5,263.5 211.5,263.5 250.5,263.5C 211.337,264.499 172.004,264.832 132.5,264.5C 132.168,222.997 132.501,181.663 133.5,140.5 Z"/></g>
<g><path style="opacity:1" fill="#696969" d="M 133.5,141.5 C 133.5,141.167 133.5,140.833 133.5,140.5C 172.833,140.5 212.167,140.5 251.5,140.5C 251.5,152.5 251.5,164.5 251.5,176.5C 252.833,176.5 254.167,176.5 255.5,176.5C 254.081,177.451 252.415,177.784 250.5,177.5C 250.5,165.5 250.5,153.5 250.5,141.5C 211.5,141.5 172.5,141.5 133.5,141.5 Z"/></g>
<g><path style="opacity:1" fill="#fbfbfb" d="M 254.5,487.5 C 250.025,488.392 245.692,489.392 241.5,490.5C 197.833,490.5 154.167,490.5 110.5,490.5C 110.5,437.167 110.5,383.833 110.5,330.5C 156.168,330.333 201.835,330.5 247.5,331C 262.6,331.104 271.1,338.604 273,353.5C 274.13,366.619 273.463,379.619 271,392.5C 269.068,395.884 266.568,398.718 263.5,401C 257.522,403.27 251.522,405.437 245.5,407.5C 252.471,409.642 259.137,412.475 265.5,416C 270.33,420.827 273.163,426.66 274,433.5C 274.667,444.167 274.667,454.833 274,465.5C 272.229,477.1 265.729,484.433 254.5,487.5 Z"/></g>
<g><path style="opacity:1" fill="#fefefe" d="M 491.5,331.5 C 491.5,336.833 491.5,342.167 491.5,347.5C 448.33,347.168 405.33,347.501 362.5,348.5C 362.5,365.167 362.5,381.833 362.5,398.5C 388.833,398.5 415.167,398.5 441.5,398.5C 441.5,404.167 441.5,409.833 441.5,415.5C 414.995,415.169 388.661,415.502 362.5,416.5C 361.503,434.993 361.17,453.659 361.5,472.5C 405.5,472.5 449.5,472.5 493.5,472.5C 493.5,478.5 493.5,484.5 493.5,490.5C 442.167,490.5 390.833,490.5 339.5,490.5C 339.5,437.5 339.5,384.5 339.5,331.5C 390.167,331.5 440.833,331.5 491.5,331.5 Z"/></g>
<g><path style="opacity:1" fill="#c5c5c5" d="M 492.5,331.5 C 492.167,331.5 491.833,331.5 491.5,331.5C 440.833,331.5 390.167,331.5 339.5,331.5C 339.5,384.5 339.5,437.5 339.5,490.5C 338.501,437.336 338.168,384.003 338.5,330.5C 390.003,330.168 441.336,330.501 492.5,331.5 Z"/></g>
<g><path style="opacity:1" fill="#e0e0e0" d="M 491.5,331.5 C 491.833,331.5 492.167,331.5 492.5,331.5C 492.5,337.167 492.5,342.833 492.5,348.5C 449.167,348.5 405.833,348.5 362.5,348.5C 405.33,347.501 448.33,347.168 491.5,347.5C 491.5,342.167 491.5,336.833 491.5,331.5 Z"/></g>
<g><path style="opacity:1" fill="#060606" d="M 133.5,348.5 C 168.835,348.333 204.168,348.5 239.5,349C 248.302,353.86 251.636,361.36 249.5,371.5C 249.773,378.321 248.939,384.987 247,391.5C 243.984,395.092 240.151,397.258 235.5,398C 201.502,398.5 167.502,398.667 133.5,398.5C 133.5,381.833 133.5,365.167 133.5,348.5 Z"/></g>
<g><path style="opacity:1" fill="#747474" d="M 441.5,398.5 C 442.49,404.31 442.823,410.31 442.5,416.5C 415.833,416.5 389.167,416.5 362.5,416.5C 388.661,415.502 414.995,415.169 441.5,415.5C 441.5,409.833 441.5,404.167 441.5,398.5 Z"/></g>
<g><path style="opacity:1" fill="#010101" d="M 133.5,415.5 C 168.168,415.333 202.835,415.5 237.5,416C 242.79,417.396 246.623,420.563 249,425.5C 251,437.5 251,449.5 249,461.5C 247.932,466.235 245.099,469.402 240.5,471C 204.835,471.5 169.168,471.667 133.5,471.5C 133.5,452.833 133.5,434.167 133.5,415.5 Z"/></g>
<g><path style="opacity:1" fill="#989898" d="M 362.5,416.5 C 362.5,434.833 362.5,453.167 362.5,471.5C 406.5,471.5 450.5,471.5 494.5,471.5C 494.823,478.022 494.49,484.355 493.5,490.5C 493.5,484.5 493.5,478.5 493.5,472.5C 449.5,472.5 405.5,472.5 361.5,472.5C 361.17,453.659 361.503,434.993 362.5,416.5 Z"/></g>
<g><path style="opacity:1" fill="#3c3c3c" d="M 254.5,487.5 C 253.319,489.067 251.653,489.901 249.5,490C 246.854,490.497 244.187,490.664 241.5,490.5C 245.692,489.392 250.025,488.392 254.5,487.5 Z"/></g>
</svg>
